<svg xmlns="http://www.w3.org/2000/svg" width="14.998" height="14.998" viewBox="0 0 14.998 14.998">
  <g id="_1814079_approve_check_ok_yes_icon" data-name="1814079_approve_check_ok_yes_icon" transform="translate(0 0)">
    <g id="Icon-Check">
      <path id="Fill-43" d="M-311.9-254.4a7.509,7.509,0,0,1-7.5-7.5,7.509,7.509,0,0,1,7.5-7.5,7.509,7.509,0,0,1,7.5,7.5,7.509,7.509,0,0,1-7.5,7.5Zm0-14.2a6.716,6.716,0,0,0-6.7,6.7,6.716,6.716,0,0,0,6.7,6.7,6.716,6.716,0,0,0,6.7-6.7,6.716,6.716,0,0,0-6.7-6.7Z" transform="translate(319.4 269.4)" fill="#fff"/>
      <path id="Fill-44" d="M-308.078-250.947l-2.622-2.644.4-.4,2.226,2.248,3.46-3.46.4.4-3.856,3.856" transform="translate(314.96 260.717)" fill="#fff"/>
    </g>
  </g>
</svg>
