<svg id="Icon-Trash" xmlns="http://www.w3.org/2000/svg" width="16" height="16" viewBox="0 0 21.698 26.65">
  <path id="Fill-6" d="M-207.5-205.1h1.669v13.353H-207.5Z" transform="translate(214.176 213.39)"/>
  <path id="Fill-7" d="M-201.5-205.1h1.669v13.353H-201.5Z" transform="translate(211.515 213.39)"/>
  <path id="Fill-8" d="M-195.5-205.1h1.669v13.353H-195.5Z" transform="translate(208.853 213.39)"/>
  <path id="Fill-9" d="M-219.5-214.1h21.7v1.669h-21.7Z" transform="translate(219.5 217.383)"/>
  <path id="Fill-10" d="M-199.166-215.883h-1.558v-1.669a.879.879,0,0,0-.89-.89h-3.338a.879.879,0,0,0-.89.89v1.669H-207.4v-1.669A2.47,2.47,0,0,1-204.952-220h3.338a2.47,2.47,0,0,1,2.448,2.448v1.669" transform="translate(214.132 220)"/>
  <path id="Fill-11" d="M-202.313-190.111h-10.015a2.7,2.7,0,0,1-2.615-2.448l-1.558-20.029,1.669-.111,1.558,20.029a1.008,1.008,0,0,0,.946.89h10.015a.967.967,0,0,0,.946-.89l1.558-20.029,1.669.111L-199.7-192.56a2.656,2.656,0,0,1-2.615,2.448" transform="translate(218.169 216.761)"/>
</svg>
