<svg xmlns="http://www.w3.org/2000/svg" width="25" height="22" viewBox="0 0 25 22">
  <g id="Group_22491" data-name="Group 22491" transform="translate(-781 -529)">
    <g id="Rectangle_4553" data-name="Rectangle 4553" transform="translate(781 529)" fill="#ffb8b8" stroke="#e5a5a5" stroke-width="1">
      <rect width="25" height="22" stroke="none"/>
      <rect x="0.5" y="0.5" width="24" height="21" fill="none"/>
    </g>
    <g id="Layer_2" data-name="Layer 2" transform="translate(780.719 530.266)">
      <path id="Path_2172" data-name="Path 2172" d="M16.642,13.032a.552.552,0,0,0-.778,0L13.3,15.548v-13a.552.552,0,0,0-1.1,0V15.531l-2.5-2.5a.552.552,0,0,0-.783.778l3.514,3.514a.5.5,0,0,0,.7,0l3.508-3.514a.552.552,0,0,0,0-.778Z" fill="#b74d4d"/>
    </g>
  </g>
</svg>
