<svg xmlns="http://www.w3.org/2000/svg" width="11.839" height="11.839" viewBox="0 0 11.839 11.839">
  <g id="_6351931_basic_cancel_close_cross_delete_icon" data-name="6351931_basic_cancel_close_cross_delete_icon" transform="translate(-1.5 -1.5)">
    <path id="Path_2157" data-name="Path 2157" d="M2.154,2.157a.466.466,0,0,1,.659,0l9.849,9.849a.466.466,0,0,1-.659.659L2.154,2.815A.466.466,0,0,1,2.154,2.157Z" transform="translate(-0.01 -0.011)" stroke="#000" stroke-width="1"/>
    <path id="Path_2158" data-name="Path 2158" d="M12.644,2.136a.466.466,0,0,0-.659,0L2.136,11.986a.466.466,0,0,0,.659.659l9.849-9.849A.466.466,0,0,0,12.644,2.136Z" stroke="#000" stroke-width="1"/>
  </g>
</svg>
