<svg xmlns="http://www.w3.org/2000/svg" xmlns:xlink="http://www.w3.org/1999/xlink" width="43" height="42" viewBox="0 0 43 42">
  <defs>
    <clipPath id="clip-path">
      <rect id="Rectangle_2903" data-name="Rectangle 2903" width="43" height="42" rx="12" transform="translate(0.09 0.333)" fill="#e7ecf2"/>
    </clipPath>
  </defs>
  <g id="Mask_Group_25" data-name="Mask Group 25" transform="translate(-0.09 -0.333)" clip-path="url(#clip-path)">
    <g id="man" transform="translate(11.732 6.867)">
      <path id="Path_2113" data-name="Path 2113" d="M97.231,25.986v2.448a.5.5,0,0,1-.5.5H78.527a.5.5,0,0,1-.5-.5V25.986a4.65,4.65,0,0,1,4.65-4.649,2.582,2.582,0,0,0,2.167-1.176,2.931,2.931,0,0,0,.415-1.827l.009-.023a6.173,6.173,0,0,1-3.813-5.7v-.2A1.538,1.538,0,0,1,79.9,10.88V8.289a8.63,8.63,0,0,1,2.319-6.3C84.89-.585,89.125-.374,92.192,1a.125.125,0,0,1,0,.229l-.8.329a.125.125,0,0,0,.034.239l.388.042a6.293,6.293,0,0,1,4.659,2.89.134.134,0,0,1-.016.154,3.772,3.772,0,0,0-1.03,2.591v3.4a1.53,1.53,0,0,1-1.53,1.53H93.8v.2a6.173,6.173,0,0,1-3.813,5.7l.009.023a2.929,2.929,0,0,0,.415,1.827,2.582,2.582,0,0,0,2.167,1.176A4.65,4.65,0,0,1,97.231,25.986Z" transform="translate(-78.028 0)" fill="#ffdfba"/>
      <path id="Path_2114" data-name="Path 2114" d="M97.231,329.191v2.448a.5.5,0,0,1-.5.5H78.527a.5.5,0,0,1-.5-.5v-2.448a4.65,4.65,0,0,1,4.65-4.649,2.582,2.582,0,0,0,2.167-1.176,4.28,4.28,0,0,0,5.568,0,2.581,2.581,0,0,0,2.167,1.176A4.65,4.65,0,0,1,97.231,329.191Z" transform="translate(-78.028 -303.205)" fill="#37aadd"/>
      <path id="Path_2115" data-name="Path 2115" d="M124.56,4.734a.132.132,0,0,1-.016.153,3.774,3.774,0,0,0-1.03,2.591v3.4a1.533,1.533,0,0,1-1.621,1.53V8.56A2.993,2.993,0,0,0,118.9,5.567h-6.359a2.993,2.993,0,0,0-2.993,2.993v3.851a1.538,1.538,0,0,1-1.559-1.53V8.29a8.63,8.63,0,0,1,2.319-6.3c2.672-2.576,6.907-2.365,9.974-.987a.125.125,0,0,1,0,.229l-.8.329a.125.125,0,0,0,.034.239l.389.042A6.29,6.29,0,0,1,124.56,4.734Z" transform="translate(-106.119 0)" fill="#3d3855"/>
      <path id="Path_2116" data-name="Path 2116" d="M145.373,96.325a6.174,6.174,0,1,1-12.345-.2V92.279a2.993,2.993,0,0,1,2.993-2.993h6.359a2.993,2.993,0,0,1,2.993,2.993Z" transform="translate(-129.599 -83.719)" fill="#ffebd2"/>
      <path id="Path_2119" data-name="Path 2119" d="M197.777,294.733a6.189,6.189,0,0,1-4.879,0,3.863,3.863,0,0,0,.07-1.024l.009-.023a6.185,6.185,0,0,0,4.72,0l.009.023A3.864,3.864,0,0,0,197.777,294.733Z" transform="translate(-185.736 -275.376)" fill="#ffd6a6"/>
    </g>
  </g>
</svg>
