<svg xmlns="http://www.w3.org/2000/svg" xmlns:xlink="http://www.w3.org/1999/xlink" width="58.777" height="57.839" viewBox="0 0 58.777 57.839">
  <defs>
    <clipPath id="clip-path">
      <rect id="Rectangle_26" data-name="Rectangle 26" width="58.777" height="57.839"/>
    </clipPath>
  </defs>
  <g id="Group_22141" data-name="Group 22141" transform="translate(0 -0.131)">
    <g id="Group_22146" data-name="Group 22146" transform="translate(0)">
      <g id="Group_21951" data-name="Group 21951" transform="translate(0 0.131)" clip-path="url(#clip-path)">
        <path id="Path_80" data-name="Path 80" d="M56.3,27.955c.048,3.948.015,7.9,0,11.845,0,1.388-.288,1.672-1.677,1.675q-8.539.02-17.078.022-16.527,0-33.055,0c-1.774,0-2.018-.214-2.019-2Q2.464,21.871,2.458,4.241c0-1.642.271-1.91,1.936-1.909l21.028.014c1.836,0,3.673-.023,5.509.009.723.012,1-.256.934-.971C31.823.933,31.851.475,31.855,0H2.577l.008.016A4.544,4.544,0,0,0,0,2.63V41.2c.881,2.115,2.479,2.837,4.734,2.79,5.017-.1,10.037-.035,15.055-.034.24,0,.479.025.838.045l-.891,7.3c-.773,0-1.466,0-2.158,0-1.293.008-1.666.4-1.671,1.718q0,1.377-.025,2.754a2.579,2.579,0,0,1-.1.415c-.476,0-.985.027-1.489-.007-.588-.04-.847.177-.808.783.018.283.018.569.015.87H45.3c0-.275,0-.552.017-.829.046-.645-.218-.887-.853-.836-.48.039-.966.008-1.581.008,0-1.045.01-2.011,0-2.976-.021-1.57-.339-1.888-1.875-1.9-.609-.005-1.219,0-1.959,0l-.9-7.347H39.29c4.921,0,9.843-.077,14.762.035,2.263.052,3.839-.69,4.725-2.79V26.875c-.425-.022-.854-.014-1.273-.072-.909-.127-1.215.194-1.2,1.152M23.076,44.519a.864.864,0,0,1,.639-.533q5.684-.052,11.37-.006a.862.862,0,0,1,.631.54c.3,2.205.552,4.418.826,6.709H22.229c.281-2.294.535-4.507.847-6.711M40.358,56.111H18.412V53.827H40.358Z"/>
        <path id="Path_81" data-name="Path 81" d="M187.467,10.879a8.384,8.384,0,0,1-1.831-.008,1.081,1.081,0,0,1-.795-.5,1.259,1.259,0,0,1,.22-1c.454-.571,1.027-1.045,1.528-1.581a1.245,1.245,0,0,0,.036-2q-1.559-1.618-3.183-3.173c-.759-.725-1.292-.7-2.066.015-.47.437-.932.885-1.37,1.354-.352.377-.731.775-1.225.355a1.71,1.71,0,0,1-.463-1.013c-.075-.54.027-1.1-.028-1.648s-.2-1.084-.316-1.678h-6.681c-.12.623-.267,1.219-.329,1.824-.059.576.039,1.17-.041,1.74a1.117,1.117,0,0,1-.509.787,1.107,1.107,0,0,1-.94-.174c-.613-.5-1.141-1.106-1.717-1.655a1.214,1.214,0,0,0-1.87,0q-1.679,1.631-3.314,3.307a1.22,1.22,0,0,0,.01,1.873c.548.577,1.157,1.1,1.662,1.71a1.1,1.1,0,0,1,.174.938,1.089,1.089,0,0,1-.791.51c-.759.071-1.529.013-2.294.03a1.258,1.258,0,0,0-1.4,1.337q-.036,2.341,0,4.683a1.224,1.224,0,0,0,1.314,1.323c.8.023,1.6-.042,2.385.026a1.072,1.072,0,0,1,.775.517,1.088,1.088,0,0,1-.161.93c-.483.588-1.081,1.081-1.6,1.643a1.257,1.257,0,0,0,.01,2.009q1.558,1.622,3.173,3.188a1.252,1.252,0,0,0,2.006-.009c.517-.477.964-1.037,1.514-1.468a.882.882,0,0,1,1.581.675c.078.7.007,1.406.023,2.109a1.263,1.263,0,0,0,1.424,1.4c1.5.018,3,.015,4.5,0a1.261,1.261,0,0,0,1.423-1.4c.017-.765-.041-1.535.03-2.293a.856.856,0,0,1,1.451-.622c.588.483,1.083,1.078,1.641,1.6a1.254,1.254,0,0,0,2.007,0q1.619-1.56,3.176-3.186a1.262,1.262,0,0,0,0-2.011c-.477-.516-1.045-.956-1.476-1.505a1.377,1.377,0,0,1-.272-1.071c.072-.241.551-.46.874-.5a8.6,8.6,0,0,1,1.833-.017,1.875,1.875,0,0,0,1.759-.744V11.63a1.992,1.992,0,0,0-1.852-.751m-.759,4.909c-.755,0-1.541,0-2.327,0a1.4,1.4,0,0,0-1.536,1.142,10.422,10.422,0,0,1-.784,1.851,1.385,1.385,0,0,0,.307,1.819c.584.533,1.163,1.072,1.792,1.653L182.3,24.234c-.564-.666-1.053-1.247-1.546-1.824a1.464,1.464,0,0,0-2.038-.347,11.7,11.7,0,0,1-1.859.765,1.318,1.318,0,0,0-1.009,1.356c0,.82,0,1.64,0,2.534h-2.424c0-.735-.011-1.486,0-2.236a1.524,1.524,0,0,0-1.277-1.729,9.067,9.067,0,0,1-1.76-.766,1.325,1.325,0,0,0-1.74.3c-.545.614-1.068,1.247-1.616,1.889l-2.02-1.927c.65-.57,1.222-1.071,1.793-1.573a1.43,1.43,0,0,0,.343-1.961,10.717,10.717,0,0,1-.76-1.862,1.363,1.363,0,0,0-1.42-1.057c-.818-.01-1.635,0-2.566,0a16.339,16.339,0,0,1,.028-1.939.787.787,0,0,1,.579-.467c.668-.061,1.345-.007,2.018-.027a1.349,1.349,0,0,0,1.351-1.026,15.824,15.824,0,0,1,.805-1.943,1.392,1.392,0,0,0-.292-1.823l-1.857-1.707c.586-.588,1.026-1.081,1.53-1.5.118-.1.516-.011.672.123a18.851,18.851,0,0,1,1.371,1.353,1.413,1.413,0,0,0,1.826.3,15.568,15.568,0,0,1,1.941-.808,1.374,1.374,0,0,0,1.042-1.433c.006-.793,0-1.587,0-2.464h2.424c0,.8,0,1.586,0,2.371a1.427,1.427,0,0,0,1.214,1.577,8.558,8.558,0,0,1,1.768.75,1.361,1.361,0,0,0,1.815-.3c.529-.589,1.061-1.176,1.695-1.877L183.939,6.8l.335.217a19.319,19.319,0,0,0-1.584,1.23c-1.05,1-1.053,1.2-.449,2.466a12.571,12.571,0,0,1,.641,1.616,1.339,1.339,0,0,0,1.348,1.027c.244.009.49.006.735.006,2.135,0,2.2.091,1.743,2.422" transform="translate(-130.542)"/>
        <path id="Path_82" data-name="Path 82" d="M75.478,179.6a9.467,9.467,0,0,1-.04,1.861c-.048.232-.535.523-.828.529-2.294.046-4.588.03-6.883.031q-14.317,0-28.633,0c-3.854,0-7.709-.038-11.563,0-.888.009-1.142-.311-1.056-1.12a12.769,12.769,0,0,0,.008-1.3Z" transform="translate(-21.6 -146.607)"/>
        <path id="Path_83" data-name="Path 83" d="M33.269,57.094V53.67q0-9.593,0-19.185c0-1.538.356-1.9,1.892-1.9q9.363,0,18.727,0c1.462,0,1.461-.023,1.442,1.425,0,.3,0,.595,0,1.046-1.334,0-2.551,0-3.768,0-4.957,0-9.914,0-14.871-.028-.768,0-.988.249-.984,1.005.029,6.639.023,13.279.028,19.919,0,1.155,0,1.154-1.167,1.138-.365,0-.73,0-1.3,0" transform="translate(-27.158 -26.603)"/>
        <path id="Path_84" data-name="Path 84" d="M67.275,66.631c-1.928,0-3.856.006-5.783,0-1.1,0-1.541-.456-1.542-1.566,0-1.438-.009-2.877.006-4.315a1.288,1.288,0,0,1,1.456-1.469q5.875-.015,11.75,0c1.033,0,1.49.483,1.5,1.529q.013,2.2-.007,4.406a1.249,1.249,0,0,1-1.408,1.411c-1.989.012-3.978,0-5.967,0m-4.815-2.52h9.728A12.114,12.114,0,0,1,72.2,62.7c.093-.766-.2-1-.962-.984-2.658.046-5.318.021-7.977.03-.261,0-.523.045-.8.071Z" transform="translate(-48.935 -48.385)"/>
        <path id="Path_85" data-name="Path 85" d="M59.974,141.991v-2.338H74.619v2.338Z" transform="translate(-48.958 -114.002)"/>
        <path id="Path_86" data-name="Path 86" d="M88.708,112.692v2.365a16.956,16.956,0,0,1-1.911-.026.8.8,0,0,1-.508-.551c-.242-1.734-.056-1.926,1.687-1.869.235.008.469.052.732.082" transform="translate(-70.37 -91.919)"/>
        <path id="Path_87" data-name="Path 87" d="M60.221,114.938v-2.615a5.717,5.717,0,0,1,2.291.343,1.918,1.918,0,0,1,.011,1.833,5.7,5.7,0,0,1-2.3.439" transform="translate(-49.16 -91.692)"/>
        <path id="Path_88" data-name="Path 88" d="M223.206,57.669a4.874,4.874,0,1,1-4.769-4.879,4.8,4.8,0,0,1,4.769,4.879m-4.9,2.424a2.432,2.432,0,1,0-2.4-2.5,2.48,2.48,0,0,0,2.4,2.5" transform="translate(-174.251 -43.092)"/>
      </g>
    </g>
  </g>
</svg>
