<svg xmlns="http://www.w3.org/2000/svg" xmlns:xlink="http://www.w3.org/1999/xlink" width="58.205" height="58.053" viewBox="0 0 58.205 58.053">
  <defs>
    <clipPath id="clip-path">
      <rect id="Rectangle_25" data-name="Rectangle 25" width="58.205" height="58.053"/>
    </clipPath>
  </defs>
  <g id="Group_22140" data-name="Group 22140" transform="translate(0 1.494)">
    <g id="Group_21949" data-name="Group 21949" transform="translate(0 -1.494)" clip-path="url(#clip-path)">
      <path id="Path_63" data-name="Path 63" d="M50.281,72.511c.932-.515,1.779-.988,2.631-1.451.381-.207.585-.065.575.354-.015.612.347.714.854.71,1.624-.013,3.249-.019,4.873,0a.815.815,0,0,0,.945-.805,8.246,8.246,0,0,1,1.789-4.139.618.618,0,0,0-.059-.964c-1.195-1.2-2.381-2.4-3.573-3.6-.23-.232-.505-.412-.793-.13-.564.551-.693.157-.828-.335-.188-.684-.39-1.365-.6-2.043-.174-.556.075-.691.556-.561.588.159,1.163.36,1.749.525.559.157,1.286.2.509,1.027-.215.229-.016.442.154.612,1.2,1.2,2.4,2.389,3.589,3.589a.758.758,0,0,0,1.081.092,10.732,10.732,0,0,1,4.121-1.635c.519-.08.657-.376.655-.843-.009-1.489,0-2.977-.006-4.466,0-.292.062-.689-.352-.736-.95-.108-.56-.6-.329-1.043.282-.539.6-1.058.878-1.6s.5-.734.83-.039c.217.457.508.878.739,1.329.323.63,1.087,1.442-.527,1.344-.414-.025-.434.355-.434.666,0,1.523.007,3.045-.006,4.567-.005.582.33.766.825.8a7.1,7.1,0,0,1,4.1,1.587.8.8,0,0,0,1.235-.085c1.167-1.129,2.358-2.231,3.529-3.355.226-.217.645-.459.308-.826-.623-.68-.161-.806.4-.949.59-.15,1.178-.312,1.757-.5.792-.254.909.05.667.736-.157.446-.257.911-.4,1.362-.183.578-.2,1.41-1.189.694-.277-.2-.547.168-.754.38-1.109,1.139-2.2,2.3-3.322,3.419-.41.407-.355.714-.034,1.127A8.324,8.324,0,0,1,78.079,71.2c.1.616.338.951,1.048.932,1.657-.044,3.316-.021,4.974-.01.5,0,.869-.088.849-.708-.018-.548.3-.536.652-.319.814.5,2.3.746,2.274,1.527-.018.67-1.558.94-2.373,1.477-.372.245-.569.063-.557-.351.017-.582-.353-.64-.8-.638-1.692.007-3.384.012-5.076,0-.516,0-.777.13-.861.716a8.335,8.335,0,0,1-1.673,4.188.725.725,0,0,0,.083,1.136c1.121,1.08,2.207,2.195,3.313,3.29.208.206.452.551.76.256.686-.66.785-.145.93.4.175.653.367,1.3.567,1.948.17.549-.023.688-.544.534-.746-.22-1.5-.418-2.245-.637-.3-.088-.682-.211-.31-.6.467-.485.165-.71-.193-1.046-1.136-1.064-2.245-2.156-3.339-3.263a.687.687,0,0,0-1.107-.061,7.572,7.572,0,0,1-4.162,1.709c-.73.064-1.038.385-1.006,1.174.064,1.52.038,3.045.01,4.567-.012.627.16.975.853.9.717-.074.726.25.418.762-.279.463-.517.951-.8,1.409-.186.295-.208.82-.671.783-.357-.029-.43-.479-.6-.763-.256-.438-.5-.885-.741-1.329-.237-.429-.425-.828.342-.888.425-.033.41-.387.41-.691,0-1.692-.01-3.383.01-5.075a.69.69,0,0,0-.71-.788,8.354,8.354,0,0,1-4.41-1.9.509.509,0,0,0-.791.064q-1.752,1.765-3.513,3.522c-.244.244-.375.487-.077.777.525.512.123.656-.311.785-.681.2-1.365.392-2.044.6-.638.2-.708-.077-.544-.608.219-.71.42-1.427.615-2.144.114-.419.28-.635.67-.242.354.357.651.225.953-.079,1.1-1.106,2.187-2.216,3.3-3.3a.772.772,0,0,0,.093-1.153,9.011,9.011,0,0,1-1.65-4.1c-.073-.6-.323-.878-.981-.861-1.555.041-3.113.013-4.669.013-.454,0-.922-.013-.943.629-.015.477-.256.484-.6.3a16.634,16.634,0,0,1-2.624-1.532m18.79,5.246c1.42,0,2.841-.023,4.26.01.669.015.91-.233.849-.9-.188-2.053-.824-3.748-3.1-4.324-.4-.1-.566-.085-.826.242-.984,1.233-1.365,1.222-2.32.02-.142-.179-.2-.413-.526-.368a3.721,3.721,0,0,0-3.156,3.337,4.811,4.811,0,0,1-.087.8c-.333,1.018.133,1.23,1.05,1.191,1.282-.055,2.569-.014,3.854-.015m2.423-9.608a2.735,2.735,0,0,0-2.2-2.126,2.309,2.309,0,0,0-2.237,1.59,4.964,4.964,0,0,0,.811,4.3,1.44,1.44,0,0,0,2.421.1c1.058-1.046,1.047-2.433,1.2-3.871" transform="translate(-40.065 -43.492)"/>
      <path id="Path_64" data-name="Path 64" d="M206.823,40.188a4.312,4.312,0,0,1,4.522-4.43,4.438,4.438,0,0,1,4.421,4.471,4.508,4.508,0,0,1-4.569,4.463,4.393,4.393,0,0,1-4.374-4.5m5.931-.475a1.338,1.338,0,0,0-.889-1.377,1.465,1.465,0,0,0-1.744.38,1.082,1.082,0,0,0-.128,1.465c.339.5.625,1.032.951,1.539.112.174.281.522.5.183a10.584,10.584,0,0,0,1.306-2.19" transform="translate(-164.803 -28.494)"/>
      <path id="Path_65" data-name="Path 65" d="M39.78,206.6a4.538,4.538,0,0,1,4.477,4.466,4.534,4.534,0,0,1-9.067-.016,4.529,4.529,0,0,1,4.59-4.45m1.017,6.855a1.133,1.133,0,0,0,1.038-.583c.18-.393-.21-.6-.4-.853-.26-.348-.529-.461-.923-.125-.527.45-.738-.158-.913-.418-.261-.387-1.116-.606-.607-1.264.342-.442.292-.693-.064-1.013-.233-.21-.359-.673-.782-.464a1.146,1.146,0,0,0-.607.99c-.126,1.367,1.871,3.711,3.262,3.729" transform="translate(-28.04 -164.625)"/>
      <path id="Path_66" data-name="Path 66" d="M125.513,250.684a4.382,4.382,0,0,1-4.5-4.474,4.5,4.5,0,0,1,4.467-4.462,4.42,4.42,0,0,1,4.477,4.42,4.322,4.322,0,0,1-4.442,4.517m.921-2.177c-2.154-.441-2.552-.725-2.569-1.835a2,2,0,0,1,1.5-2.04,1.464,1.464,0,0,1,1.864.818c.23.607.331,1.316-.439,1.747-.25-.317-.116-.625-.09-.915.095-1.065-.319-1.36-1.347-.958a1.56,1.56,0,0,0-1.01,1.4c-.052.52.189,1.039.751,1a4.975,4.975,0,0,1,1.675,0c.375.095.74-.259.962-.632a2.018,2.018,0,0,0-1.024-2.863,2.507,2.507,0,0,0-2.713.625,2.664,2.664,0,0,0-.527,2.828,1.978,1.978,0,0,0,2.966.824" transform="translate(-96.425 -192.632)"/>
      <path id="Path_67" data-name="Path 67" d="M206.822,211.087a4.325,4.325,0,0,1,4.446-4.489,4.4,4.4,0,0,1,4.5,4.366,4.524,4.524,0,0,1-4.434,4.578,4.4,4.4,0,0,1-4.51-4.455m1.648-.771a.977.977,0,0,1,.582.754c.438,2.065.447,2.063,2.536,2.063a3.107,3.107,0,0,1,.608.006c.817.166,1.049-.3,1.13-.982A2.963,2.963,0,0,1,214,210.2a2.043,2.043,0,0,1-.48-.089c-.806-.415-1.606.031-2.409.008-.449-.013-.96.12-.906-.75-.2,1.135-1.125.533-1.731.943" transform="translate(-164.802 -164.623)"/>
      <path id="Path_68" data-name="Path 68" d="M241.967,125.388a4.522,4.522,0,1,1,4.465,4.471,4.558,4.558,0,0,1-4.465-4.471m6.372-.024c-.053-3.283.5-2.67-2.785-2.746-.034,0-.067,0-.1,0a.775.775,0,0,0-.835.895c.013,1.245.01,2.491,0,3.737,0,.643.3.9.937.886,3.242-.053,2.738.425,2.782-2.671,0-.034,0-.067,0-.1" transform="translate(-192.806 -96.295)"/>
      <path id="Path_69" data-name="Path 69" d="M129.954,4.518a4.474,4.474,0,1,1-8.945-.087,4.473,4.473,0,1,1,8.945.087m-2.863-3.039c-.507-.171-.581.777-1.077.2-.44-.516-.844-.32-1.285.051-.568.477-1.189.892-1.776,1.347-.2.154-.564.357-.26.628.725.645.52,1.468.51,2.245-.007.54.188.7.709.688.98-.031,1.963-.044,2.941,0,.646.032.815-.225.8-.824-.023-.718-.189-1.481.475-2.068.3-.269.047-.506-.2-.628a1.463,1.463,0,0,1-.838-1.637" transform="translate(-96.424 0)"/>
      <path id="Path_70" data-name="Path 70" d="M39.723,44.671a4.573,4.573,0,0,1-4.554-4.491,4.536,4.536,0,0,1,9.071.061,4.593,4.593,0,0,1-4.518,4.43m.328-1.766h1.215c1.374,0,1.4-.01.9-1.338a5.827,5.827,0,0,1-.4-2.166c.023-1.892.006-1.892-1.9-1.892-3.045,0-3.045,0-2.866,3.059.111,1.9.574,2.337,2.449,2.337h.607" transform="translate(-28.024 -28.471)"/>
      <path id="Path_71" data-name="Path 71" d="M8.948,125.364A4.475,4.475,0,1,1,0,125.31a4.539,4.539,0,0,1,4.457-4.462,4.5,4.5,0,0,1,4.491,4.516M2.422,128.2c.107-.022.175-.031.239-.05,1.576-.481,3.151-.967,4.729-1.444.419-.127.368-.4.269-.719-.313-.994-.648-1.982-.919-2.988-.139-.518-.395-.506-.811-.373-1.474.47-2.952.93-4.439,1.358-.479.138-.563.369-.417.807.33.989.64,1.984.944,2.981.073.239.122.464.4.428" transform="translate(0 -96.295)"/>
      <path id="Path_72" data-name="Path 72" d="M141.9,261.9c.229.018.287.158.238.346-.091.348-.082.787-.544.877-.257.05-.345-.194-.322-.4a.879.879,0,0,1,.627-.824" transform="translate(-112.57 -208.686)"/>
      <path id="Path_73" data-name="Path 73" d="M260.365,134.768c0,1.964,0,1.951-2,1.81-.455-.032-.683-.15-.64-.647.035-.4.006-.81.006-1.215,0-1.824,0-1.8,1.851-1.769.62.009.864.187.791.808a8.757,8.757,0,0,0-.007,1.012" transform="translate(-205.357 -105.931)"/>
      <path id="Path_74" data-name="Path 74" d="M137.85,14.213c0,.236-.008.472,0,.708.012.319-.087.505-.452.506s-.424-.215-.449-.518c-.032-.381.218-.919-.549-.921-.608,0-1.084.006-.957.826.044.287.071.615-.417.616-.466,0-.459-.292-.455-.6.012-.948-.27-2,.892-2.546.31-.146.54-.72.915-.411.541.446,1.372.663,1.468,1.535a7.286,7.286,0,0,1,0,.808" transform="translate(-107.213 -9.386)"/>
      <path id="Path_75" data-name="Path 75" d="M48.33,49.111h-.3c-1.573,0-1.84-.359-1.541-1.948.072-.382.271-.4.555-.395a13.347,13.347,0,0,0,1.817-.013c1.046-.137,1.42.224,1.312,1.3-.126,1.251.242,1.039-1.84,1.061" transform="translate(-36.956 -37.233)"/>
      <path id="Path_76" data-name="Path 76" d="M17.53,144.649l-3.878,1.2c.416-.722.5-1.68,1.036-1.729.925-.085,2.076-.916,2.841.533" transform="translate(-10.878 -114.585)"/>
      <path id="Path_77" data-name="Path 77" d="M15.279,134.4c-1.267,1.885-.808,1.647-2.85.911a12.173,12.173,0,0,1,2.85-.911" transform="translate(-9.904 -107.091)"/>
      <path id="Path_78" data-name="Path 78" d="M27.941,135.11l.6,2.049c-.684-.2-1.361-.386-1.506-.87-.1-.349.4-.851.9-1.179" transform="translate(-21.535 -107.66)"/>
      <path id="Path_79" data-name="Path 79" d="M8.534,141.388c.635.3,1.4.211,1.441.732.026.38-.5.856-.8,1.391l-.64-2.123" transform="translate(-6.8 -112.662)"/>
    </g>
  </g>
</svg>
