<svg id="Group_22248" data-name="Group 22248" xmlns="http://www.w3.org/2000/svg" xmlns:xlink="http://www.w3.org/1999/xlink" width="46.639" height="61.468" viewBox="0 0 46.639 61.468">
  <defs>
    <clipPath id="clip-path">
      <rect id="Rectangle_28" data-name="Rectangle 28" width="46.639" height="61.468"/>
    </clipPath>
  </defs>
  <g id="Group_22249" data-name="Group 22249" transform="translate(0)">
    <g id="Group_22144" data-name="Group 22144">
      <g id="Group_21955" data-name="Group 21955" clip-path="url(#clip-path)">
        <path id="Path_96" data-name="Path 96" d="M8.936,56.923c-1.125,0-2.088-.03-3.048.008-.98.039-1.438-.335-1.381-1.363.055-1.005.012-2.016.012-3.178-1.031,0-1.9-.06-2.755.014-1.368.118-1.882-.5-1.742-1.8a1.352,1.352,0,0,0,0-.146q0-24.3,0-48.6C.025.094.123,0,1.954,0Q18.882,0,35.811,0c1.81,0,1.878.079,1.891,1.89.006.82,0,1.641,0,2.672,1.011,0,1.916.051,2.814-.012,1.291-.09,1.762.5,1.692,1.734-.05.867-.01,1.74-.01,2.792,1.022,0,1.937.053,2.845-.013,1.224-.088,1.595.438,1.59,1.627-.036,8.61-.02,17.22-.02,25.83,0,7.686-.028,15.372.025,23.057.01,1.384-.4,1.894-1.825,1.889q-17.074-.061-34.149,0c-1.349,0-1.863-.473-1.743-1.8.074-.817.014-1.647.014-2.746M10.8,59.589H44.745V10.811H10.8Zm-6.277-9v-1.9q0-21.084,0-42.168c0-1.946.009-1.953,1.956-1.953q13.935,0,27.869,0h1.515c.387-2.883.387-2.883-2.221-2.883H1.812V50.59ZM40.407,6.4H6.329V55.16H8.941V53.33q0-21.086,0-42.172c0-2.075,0-2.079,2.129-2.079q13.79,0,27.58,0h1.757Z" transform="translate(0 0)"/>
        <path id="Path_97" data-name="Path 97" d="M62.426,85.336q-6.047,0-12.094,0c-.654,0-1.582.15-1.437-.864.051-.354.958-.833,1.477-.836q12.021-.08,24.042,0c.512,0,1.02.561,1.53.861-.523.281-1.043.8-1.57.805-3.982.069-7.965.037-11.948.037" transform="translate(-34.609 -59.186)"/>
        <path id="Path_98" data-name="Path 98" d="M62.337,138.575q6.047,0,12.094,0c.676,0,1.556-.092,1.431.9-.043.335-.9.808-1.385.811-8.062.05-16.124.036-24.187.034-.685,0-1.55.053-1.415-.927.045-.328.886-.773,1.369-.78,4.03-.063,8.062-.036,12.093-.036" transform="translate(-34.596 -98.113)"/>
        <path id="Path_99" data-name="Path 99" d="M62.375,97.512c3.981,0,7.962-.026,11.942.033.5.007.987.463,1.481.711-.494.326-.985.934-1.481.937q-12.087.089-24.176,0c-.493,0-.981-.608-1.471-.933.49-.249.978-.708,1.472-.715,4.077-.058,8.155-.033,12.233-.033" transform="translate(-34.461 -69.039)"/>
        <path id="Path_100" data-name="Path 100" d="M62.227,126.431c-4.03,0-8.06.026-12.089-.033-.493-.007-.978-.469-1.467-.719.49-.326.978-.934,1.471-.937q12.089-.088,24.178,0c.5,0,.986.614,1.479.942-.494.249-.985.708-1.483.715-4.029.059-8.059.033-12.089.033" transform="translate(-34.461 -88.291)"/>
        <path id="Path_101" data-name="Path 101" d="M62.308,152.436c3.987,0,7.975-.008,11.962.007.636,0,1.589-.206,1.457.825-.045.349-.987.829-1.522.832-7.975.053-15.95.037-23.925.037-.146,0-.336.057-.43-.013-.405-.305-.782-.648-1.169-.977.409-.237.815-.674,1.226-.679,4.133-.051,8.266-.031,12.4-.031" transform="translate(-34.469 -107.925)"/>
        <path id="Path_102" data-name="Path 102" d="M62.1,167.68c-3.985,0-7.97.026-11.953-.034-.493-.008-.98-.476-1.47-.732.509-.3,1.017-.871,1.528-.875q12.026-.084,24.053,0c.518,0,1.031.561,1.547.862-.535.26-1.067.737-1.606.745-4.032.064-8.066.034-12.1.034" transform="translate(-34.466 -117.534)"/>
        <path id="Path_103" data-name="Path 103" d="M62.366,112.88q-5.9,0-11.8,0a3.394,3.394,0,0,1-1.151-.079c-.258-.1-.613-.476-.582-.678a1.215,1.215,0,0,1,.627-.8,2.983,2.983,0,0,1,1.149-.074q11.726,0,23.452,0a3.105,3.105,0,0,1,1.15.069c.29.123.66.506.652.763a1.045,1.045,0,0,1-.688.727,9.777,9.777,0,0,1-1.885.067q-5.462,0-10.925,0" transform="translate(-34.576 -78.758)"/>
        <path id="Path_104" data-name="Path 104" d="M58.151,61.432c2.667,0,5.335-.041,8,.038.485.014.955.519,1.432.8-.48.3-.957.853-1.44.859q-8,.093-16,0c-.495-.006-.982-.611-1.472-.938.494-.251.982-.7,1.482-.718,2.665-.072,5.333-.034,8-.034" transform="translate(-34.461 -43.489)"/>
        <path id="Path_105" data-name="Path 105" d="M58,181.341c-2.669,0-5.34.035-8.007-.034-.447-.012-.883-.474-1.323-.728.436-.329.868-.939,1.308-.945q8.153-.1,16.307,0c.434,0,.862.555,1.294.852-.426.286-.846.808-1.28.82-2.764.075-5.532.038-8.3.039" transform="translate(-34.461 -127.155)"/>
      </g>
    </g>
  </g>
</svg>
