<svg xmlns="http://www.w3.org/2000/svg" width="49.665" height="57.843" viewBox="0 0 49.665 57.843">
  <g id="Group_22407" data-name="Group 22407" transform="translate(-7.61 -3.555)">
    <rect id="Rectangle_4604" data-name="Rectangle 4604" width="24" height="4" transform="translate(20.443 32.443)"/>
    <rect id="Rectangle_4605" data-name="Rectangle 4605" width="24" height="4" transform="translate(20.443 20.443)"/>
    <path id="Path_2159" data-name="Path 2159" d="M28.333,58.776,15.81,52.1A22.267,22.267,0,0,1,4,32.416V6.055A4.06,4.06,0,0,1,8.055,2H48.61a4.06,4.06,0,0,1,4.055,4.055v26.36A22.267,22.267,0,0,1,40.855,52.1ZM8.055,6.055v26.36a18.219,18.219,0,0,0,9.663,16.1L28.333,54.18,38.946,48.52a18.219,18.219,0,0,0,9.663-16.1V6.055Z" transform="translate(4.11 2.055)" stroke="#fff" stroke-width="1"/>
  </g>
</svg>
