<svg xmlns="http://www.w3.org/2000/svg" xmlns:xlink="http://www.w3.org/1999/xlink" width="53.419" height="53.403" viewBox="0 0 53.419 53.403">
  <defs>
    <clipPath id="clip-path">
      <rect id="Rectangle_27" data-name="Rectangle 27" width="53.419" height="53.403"/>
    </clipPath>
  </defs>
  <g id="Group_22247" data-name="Group 22247" transform="translate(0 0.51)">
    <g id="Group_22145" data-name="Group 22145">
      <g id="Group_21953" data-name="Group 21953" transform="translate(0 -0.51)" clip-path="url(#clip-path)">
        <path id="Path_89" data-name="Path 89" d="M10.545,25.648c.252.316.418.527.587.735.926,1.134,1.862,2.261,2.774,3.406a.9.9,0,0,0,.794.378c4.839-.012,9.679-.005,14.518-.015a1.007,1.007,0,0,1,.789.323c2.367,2.384,4.749,4.753,7.117,7.137a.95.95,0,0,0,.752.308c1.45-.015,2.9-.017,4.351,0a1,1,0,0,1,.628.257c1.557,1.529,3.089,3.083,4.647,4.612a1.059,1.059,0,0,0,.663.277c1.736.023,3.472.012,5.243.012V53.4H.037V20.7H2.6A12.852,12.852,0,0,1,.484,9.475,12.613,12.613,0,0,1,5.042,2.7a12.922,12.922,0,1,1,5.5,22.949m2.378-1.521A11.2,11.2,0,1,0,1.745,12.889,11.229,11.229,0,0,0,12.923,24.126M1.778,22.412V51.67h3.4v-.452q0-13.76,0-27.519a1.705,1.705,0,0,0-1.214-1.283c-.717-.014-1.434,0-2.191,0m8.575,29.271v-.5q0-11.28-.007-22.561a1.083,1.083,0,0,0-.164-.632c-.853-1.081-1.728-2.145-2.612-3.2a3.424,3.424,0,0,0-.625-.453V51.683ZM12.12,30.342V51.667h3.374V31.89c-.556,0-1.087-.029-1.612.01a.854.854,0,0,1-.826-.4c-.277-.375-.586-.726-.935-1.153m5.17,21.325h3.372V31.908H17.291Zm8.534-19.743H22.453V51.682h3.372Zm5.207,19.761v-.547q0-7.644,0-15.288a5.033,5.033,0,0,0-.06-1.831c-.228-.541-.832-.924-1.272-1.376a1.88,1.88,0,0,1-.241-.245c-.481-.728-1.187-.478-1.834-.49V51.684Zm1.873-15.938-.105.1V51.667h3.379c.01-.088.021-.144.021-.2q0-6.032-.008-12.063a.771.771,0,0,0-.217-.476c-.678-.7-1.38-1.381-2.063-2.079-.348-.356-.672-.734-1.007-1.1m5.065,15.921h3.373v-12H37.971Zm8.54.014a1.474,1.474,0,0,0,.029-.192c0-2.312.006-4.624-.006-6.936a.709.709,0,0,0-.2-.44c-.986-1-1.984-2-2.981-2.989a2.345,2.345,0,0,0-.219-.168V51.681Zm5.165-6.833H48.3v6.834h3.372Z" transform="translate(0 0)"/>
        <path id="Path_90" data-name="Path 90" d="M480.278,92.461V83.839h1.7v-3.43h1.73v3.4h1.714v8.622h-1.681v3.429h-1.73v-3.4Zm3.409-6.871h-1.656V90.7h1.656Z" transform="translate(-438.894 -73.48)"/>
        <path id="Path_91" data-name="Path 91" d="M320.534,133.733h1.676v-3.421h1.73v3.407h1.705v8.622h-1.676v3.436h-1.73v-3.407h-1.705Zm1.722,6.861h1.664v-5.107h-1.664Z" transform="translate(-292.915 -119.084)"/>
        <path id="Path_92" data-name="Path 92" d="M562.116,170.245h1.73v3.415h1.711v8.622H563.87v3.427h-1.73v-3.4h-1.711v-8.622h1.687Zm.035,10.293h1.662v-5.1h-1.662Z" transform="translate(-512.139 -155.576)"/>
        <path id="Path_93" data-name="Path 93" d="M405.647,222.359h-1.675v3.421h-1.73v-3.406h-1.706v-8.622h1.675v-3.437h1.73v3.406h1.706Zm-1.734-6.859h-1.649v5.11h1.649Z" transform="translate(-366.024 -192.194)"/>
        <path id="Path_94" data-name="Path 94" d="M49.661,40.011a9.482,9.482,0,1,1-9.511,9.44,9.484,9.484,0,0,1,9.511-9.44m7.72,9.49a7.75,7.75,0,1,0-7.77,7.742,7.774,7.774,0,0,0,7.77-7.742" transform="translate(-36.69 -36.563)"/>
        <path id="Path_95" data-name="Path 95" d="M123.909,92.316H122.2V90.634h-1.715V82h1.684V80.29h1.742c0,.481.013.962-.005,1.443a.527.527,0,0,0,.321.569,2.523,2.523,0,0,1,.963,3.707.462.462,0,0,0,.013.6,2.527,2.527,0,0,1-.956,3.681.555.555,0,0,0-.342.6c.02.458.005.917.005,1.426m-1.7-6.883c.606-.028,1.225.174,1.587-.472a.754.754,0,0,0-.075-.884c-.409-.522-.971-.332-1.512-.34Zm0,3.443c.581-.022,1.176.174,1.557-.417a.758.758,0,0,0-.013-.888c-.394-.577-.983-.368-1.545-.4Z" transform="translate(-110.101 -73.372)"/>
      </g>
    </g>
  </g>
</svg>
