<svg xmlns="http://www.w3.org/2000/svg" width="28.077" height="24" viewBox="0 0 28.077 24">
  <g id="_2377635_business_chart_graph_marketing_report_icon" data-name="2377635_business_chart_graph_marketing_report_icon" transform="translate(-22.619 -59.034)">
    <path id="Path_2164" data-name="Path 2164" d="M50.254,433.8H23.061a.442.442,0,0,1-.442-.442v-.051a.442.442,0,0,1,.442-.442H50.254a.442.442,0,0,1,.442.442v.051A.442.442,0,0,1,50.254,433.8Z" transform="translate(0 -350.765)"/>
    <g id="Group_22410" data-name="Group 22410" transform="translate(25.146 63.18)">
      <rect id="Rectangle_4610" data-name="Rectangle 4610" width="1.381" height="5.923" transform="translate(0 12.996)"/>
      <rect id="Rectangle_4611" data-name="Rectangle 4611" width="1.381" height="8.777" transform="translate(4.328 10.142)"/>
      <rect id="Rectangle_4612" data-name="Rectangle 4612" width="1.381" height="8.493" transform="translate(8.656 10.426)"/>
      <rect id="Rectangle_4613" data-name="Rectangle 4613" width="1.381" height="13.525" transform="translate(12.984 5.394)"/>
      <rect id="Rectangle_4614" data-name="Rectangle 4614" width="1.381" height="15.367" transform="translate(17.313 3.552)"/>
      <rect id="Rectangle_4615" data-name="Rectangle 4615" width="1.381" height="18.919" transform="translate(21.641 0)"/>
    </g>
    <path id="Path_2165" data-name="Path 2165" d="M67.33,74.753a.489.489,0,0,1-.309-.87l4.328-3.511a.489.489,0,0,1,.387-.1l4.014.653,4.154-6.345a.49.49,0,0,1,.326-.214l4.168-.72,4.216-4.455a.489.489,0,0,1,.711.673L85,64.433a.49.49,0,0,1-.272.146l-4.119.712L76.4,71.724a.49.49,0,0,1-.488.215L71.8,71.271l-4.158,3.373A.488.488,0,0,1,67.33,74.753Z" transform="translate(-41.493 0)"/>
  </g>
</svg>
